<svg xmlns="http://www.w3.org/2000/svg" width="51.9969" height="99.4787" viewBox="0 0 4.5018 8.6128">
  <defs>
    <style>
      .fil1{fill:red}
    </style>
  </defs>
  <g>
    <g>
      <path fill="#000" d="M0 0h4.5018v8.6128H0z"/>
      <path class="fil1" d="M.1565.0009l1.2422 1.2168h1.7196L4.3453 0z"/>
      <path class="fil1" d="M.1565 8.6119L1.3987 7.395h1.7196l1.227 1.2177z"/>
      <path class="fil1" d="M4.501 8.4952L3.284 7.253l.0001-1.7195 1.2176-1.227z"/>
      <path class="fil1" d="M4.501 4.3063L3.284 3.0642l.0001-1.7196L4.5018.1176z"/>
      <path class="fil1" d="M.0009 8.4952L1.2177 7.253V5.5335L0 4.3064z"/>
      <path class="fil1" d="M.0009 4.3063l1.2168-1.2421V1.3446L0 .1176z"/>
      <path fill="#600000" d="M.1565 4.2766l1.2422.7067h1.7196l1.2269-.707v-.0001l-1.227-.707-1.7195-.0001-1.2422.7066 3.9095.0005z"/>
    </g>
  </g>
</svg>
