<svg xmlns="http://www.w3.org/2000/svg" width="51.997" height="99.479" viewBox="0 0 141.457 270.63">
  <defs>
    <style>
      .fil2{fill:red}.fil1{fill:#600000}
    </style>
  </defs>
  <g>
    <g>
      <path fill="#000" d="M0 0h141.457v270.63H0z"/>
      <path class="fil1" d="M4.919.028l39.03 38.234 54.033-.002L136.538 0z"/>
      <path class="fil1" d="M4.919 270.602l39.03-38.234 54.033.002 38.556 38.26z"/>
      <path class="fil2" d="M141.429 266.935l-38.234-39.03.002-54.033 38.26-38.556z"/>
      <path class="fil2" d="M141.429 135.313l-38.234-39.03.002-54.033 38.26-38.556z"/>
      <path class="fil1" d="M.028 266.935l38.234-39.03-.002-54.033L0 135.316z"/>
      <path class="fil1" d="M.028 135.313l38.234-39.03-.002-54.033L0 3.694z"/>
      <path class="fil1" d="M4.919 134.38l39.03 22.205 54.033-.002 38.552-22.216h.004l-.003-.001.003-.001h-.004l-38.552-22.216-54.033-.002-39.03 22.205 122.844.014z"/>
    </g>
  </g>
</svg>
