<svg xmlns="http://www.w3.org/2000/svg" width="52.3389" height="99.9231" viewBox="0 0 4.8743 9.3059">
  <defs>
    <style>
      .fil1{fill:red}.fil2{fill:#600000}
    </style>
  </defs>
  <g>
    <g>
      <path fill="#000" d="M0 0h4.8743v9.3058H0z"/>
      <path class="fil1" d="M.1843.001l1.3361 1.3088h1.8497L4.69 0z"/>
      <path class="fil1" d="M.1843 9.305l1.3361-1.309 1.8497.0001L4.69 9.306z"/>
      <path class="fil2" d="M4.8734 9.1587L3.5645 7.8226V5.9729l1.3098-1.32z"/>
      <path class="fil1" d="M4.8734 4.6529L3.5645 3.3168V1.467L4.8744.1472z"/>
      <path class="fil1" d="M.001 9.1587l1.3088-1.3361V5.9729L0 4.6529z"/>
      <path class="fil2" d="M.001 4.6529l1.3088-1.3361V1.467L0 .1472z"/>
      <path class="fil1" d="M.1843 4.621l1.3361.76h1.8497L4.69 4.6205H4.69h-.0001L3.37 3.8598H1.5204l-1.3361.76 4.2053.0005z"/>
    </g>
  </g>
</svg>
