<svg xmlns="http://www.w3.org/2000/svg" width="173.0755" height="107.616" viewBox="0 0 13.2843 8.26">
  <defs>
    <style>
      .fil2{fill:#000}.fil3{fill:#600000}
    </style>
  </defs>
  <g>
    <g>
      <path fill="gray" d="M0 0h13.2843v8.26H0z"/>
      <path fill="#fff" d="M13.2843 0v8.26H0l.3623-.3864L12.9273.3931z"/>
      <path class="fil2" d="M.3316.3818h12.6211v7.4964H.3316z"/>
      <path class="fil2" d="M9.0525.6792h3.6074v6.9016H9.0525z"/>
      <path class="fil3" d="M9.1779.6799l.9953.975h1.378l.9832-.9757z"/>
      <path class="fil3" d="M9.1779 7.58l.9953-.975h1.378l.9832.9757z"/>
      <path class="fil3" d="M12.6591 7.4865l-.975-.9953.0001-1.378.9757-.9832z"/>
      <path class="fil3" d="M12.6591 4.13l-.975-.9954.0001-1.378.9757-.9832z"/>
      <path class="fil3" d="M9.0532 7.4865l.975-.9953v-1.378L9.0525 4.13z"/>
      <path class="fil3" d="M9.0532 4.13l.975-.9954v-1.378L9.0525.7735z"/>
      <path class="fil3" d="M9.1779 4.1061l.9953.5663h1.378l.9831-.5666h.0001-.0001l-.9831-.5666h-1.378l-.9953.5662 3.1327.0004z"/>
      <g>
        <path class="fil2" d="M4.8505.6792h3.6074v6.9016H4.8505z"/>
        <path class="fil3" d="M4.976.6799l.9952.975h1.378l.9832-.9757z"/>
        <path class="fil3" d="M4.976 7.58l.9952-.975h1.378l.9832.9757z"/>
        <path class="fil3" d="M8.4572 7.4865l-.975-.9953v-1.378l.9757-.9832z"/>
        <path class="fil3" d="M8.4572 4.13l-.975-.9954v-1.378l.9757-.9832z"/>
        <path class="fil3" d="M4.8512 7.4865l.975-.9953v-1.378L4.8505 4.13z"/>
        <path class="fil3" d="M4.8512 4.13l.975-.9954v-1.378L4.8505.7735z"/>
        <path class="fil3" d="M4.976 4.1061l.9952.5663h1.378l.9832-.5666-.9832-.5666h-1.378l-.9953.5662 3.1328.0004z"/>
      </g>
      <g>
        <path class="fil2" d="M.6485.6792h3.6074v6.9016H.6485z"/>
        <path class="fil3" d="M.774.6799l.9953.975h1.3779l.9832-.9757z"/>
        <path class="fil3" d="M.774 7.58l.9953-.975h1.3779l.9832.9757z"/>
        <path class="fil3" d="M4.2552 7.4865l-.975-.9953v-1.378L4.256 4.13z"/>
        <path class="fil3" d="M4.2552 4.13l-.975-.9954v-1.378L4.256.7735z"/>
        <path class="fil3" d="M.6492 7.4865l.975-.9953v-1.378L.6485 4.13z"/>
        <path class="fil3" d="M.6492 4.13l.975-.9954v-1.378L.6485.7735z"/>
        <path class="fil3" d="M.774 4.1061l.9953.5663h1.3779l.9832-.5666-.9832-.5666h-1.378l-.9953.5662 3.1328.0004z"/>
      </g>
    </g>
  </g>
</svg>
